<?xml version="1.0" encoding="UTF-8"?>
<svg version="1.1" xmlns="http://www.w3.org/2000/svg" width="143" height="143">
<path d="M0 0 C-0.875 4.875 -0.875 4.875 -2 6 C-6.83464722 5.62810406 -11.25405296 4.67740881 -15.9375 3.4375 C-33.3098026 -0.6100261 -51.64049053 2.00912072 -67.0625 11.01171875 C-71.8304191 14.23894059 -75.96096375 17.90937022 -80 22 C-80.56203125 22.54011719 -81.1240625 23.08023437 -81.703125 23.63671875 C-92.29794915 34.70552188 -96.54931285 50.91209243 -96.41992188 65.84057617 C-95.80005246 82.45983136 -89.42579159 97.39288793 -77.8671875 109.42578125 C-64.46852707 121.45536875 -48.14305317 127.78622721 -30.0625 126.875 C-11.67778035 125.56508054 1.89363043 117.05749078 14.1875 103.6875 C21.01271096 95.2280836 24.90840463 86.25624483 28.046875 75.9675293 C29.820201 70.179799 29.820201 70.179799 32 68 C34 68.125 34 68.125 36 69 C37.2421875 70.59765625 37.2421875 70.59765625 38 73 C37.523567 75.59625832 36.95542616 77.83105081 36.125 80.3125 C35.89522461 81.01528076 35.66544922 81.71806152 35.42871094 82.44213867 C28.30667855 103.19770958 14.81739128 120.12898001 -5 130 C-22.04293331 137.63009985 -41.84007418 137.67176607 -59.25 131.375 C-77.83478968 124.1067912 -91.62699161 110.30805718 -99.75 92.1875 C-107.03440666 73.5076849 -107.20075569 53.72308127 -99.4921875 35.203125 C-91.196539 17.53146447 -77.38509072 4.10765954 -59.06787109 -2.72021484 C-40.63979287 -8.8818519 -17.27665236 -10.22495752 0 0 Z " fill="#FFFFFF" transform="translate(105,7)"/>
<path d="M0 0 C1.9375 0.8125 1.9375 0.8125 4 2 C4.495 3.485 4.495 3.485 5 5 C1.30664166 10.92410469 -3.80340095 16.02992563 -8.84765625 20.8203125 C-11.39885815 23.40392532 -13.74912136 26.1312922 -16.12866211 28.87255859 C-19.0902921 32.23950494 -22.16973092 35.49189095 -25.25 38.75 C-30.64354463 44.47877049 -35.99654206 50.23911111 -41.30078125 56.05078125 C-43.24957062 58.18006631 -45.20436128 60.30244725 -47.16796875 62.41796875 C-47.70268799 62.99458252 -48.23740723 63.57119629 -48.78833008 64.1652832 C-49.80909101 65.26520454 -50.83097385 66.36408633 -51.85424805 67.46166992 C-52.32258057 67.96674072 -52.79091309 68.47181152 -53.2734375 68.9921875 C-53.73202148 69.48299805 -54.19060547 69.97380859 -54.66308594 70.47949219 C-56.0348903 71.99311154 -56.0348903 71.99311154 -57.25097656 73.71582031 C-59.25664294 76.44384621 -60.35924359 77.87861923 -63.75415039 78.52172852 C-68.21606995 77.80453242 -70.43092229 75.39580314 -73.45703125 72.26953125 C-74.0454631 71.68209641 -74.63389496 71.09466156 -75.24015808 70.48942566 C-76.478457 69.2464545 -77.7093956 67.99611275 -78.93334961 66.73901367 C-80.80617592 64.81898348 -82.70424238 62.92700572 -84.60742188 61.03710938 C-85.80888446 59.82449274 -87.00880813 58.610349 -88.20703125 57.39453125 C-89.05694389 56.54735283 -89.05694389 56.54735283 -89.92402649 55.68305969 C-92.88738763 52.61129023 -94.85194304 50.36744085 -95 46 C-94.67 45.34 -94.34 44.68 -94 44 C-90.02800824 43.52848614 -88.45295764 43.65752949 -85.20751953 46.11132812 C-84.25042143 47.0693691 -83.30950802 48.04377104 -82.3828125 49.03125 C-81.88079315 49.54175903 -81.3787738 50.05226807 -80.86154175 50.57824707 C-79.26801195 52.20525059 -77.69665222 53.85188122 -76.125 55.5 C-75.04567073 56.60943654 -73.96495534 57.71752639 -72.8828125 58.82421875 C-70.2388952 61.53413951 -67.61466291 64.26185458 -65 67 C-61.07751844 65.19443788 -58.88553374 62.92943151 -56 59.6875 C-55.01990459 58.59601881 -54.03942249 57.50488475 -53.05859375 56.4140625 C-52.55440918 55.84977539 -52.05022461 55.28548828 -51.53076172 54.70410156 C-49.06952426 51.96415938 -46.56543317 49.26430646 -44.0625 46.5625 C-43.05324887 45.47017823 -42.04413501 44.37772961 -41.03515625 43.28515625 C-40.53387207 42.74262207 -40.03258789 42.20008789 -39.51611328 41.64111328 C-37.00985896 38.92822415 -34.50497855 36.21406708 -32 33.5 C-28.98897128 30.23764315 -25.97764474 26.97556408 -22.96484375 23.71484375 C-22.21352173 22.90140503 -22.21352173 22.90140503 -21.44702148 22.0715332 C-20.44818981 20.99031366 -19.44900887 19.90941665 -18.44946289 18.82885742 C-15.92146951 16.09328932 -13.40506632 13.34820225 -10.90625 10.5859375 C-10.40746338 10.03623291 -9.90867676 9.48652832 -9.39477539 8.92016602 C-8.01988562 7.40338781 -6.64850145 5.88343406 -5.27734375 4.36328125 C-3 2 -3 2 0 0 Z " fill="#FFFFFF" transform="translate(138,21)"/>
</svg>
